<?xml version="1.0" encoding="UTF-8"?>
<!DOCTYPE svg PUBLIC "-//W3C//DTD SVG 1.1//EN" "http://www.w3.org/Graphics/SVG/1.1/DTD/svg11.dtd">
<svg xmlns="http://www.w3.org/2000/svg" version="1.1" width="375px" height="387px" style="shape-rendering:geometricPrecision; text-rendering:geometricPrecision; image-rendering:optimizeQuality; fill-rule:evenodd; clip-rule:evenodd" xmlns:xlink="http://www.w3.org/1999/xlink">
<g><path style="opacity:0.995" fill="#f9f9f9" d="M 49.5,50.5 C 61.1667,50.5 72.8333,50.5 84.5,50.5C 84.1678,102.336 84.5011,154.003 85.5,205.5C 115.671,205.831 145.671,205.498 175.5,204.5C 175.5,177.167 175.5,149.833 175.5,122.5C 205.5,122.5 235.5,122.5 265.5,122.5C 285.746,124.871 299.579,135.537 307,154.5C 313.414,174.031 312.081,193.031 303,211.5C 296.575,222.291 287.409,229.625 275.5,233.5C 273.443,233.957 273.443,234.957 275.5,236.5C 278.167,241.167 280.833,245.833 283.5,250.5C 283.427,252.027 284.094,253.027 285.5,253.5C 286.167,254.833 286.833,256.167 287.5,257.5C 287.427,259.027 288.094,260.027 289.5,260.5C 299.155,277.139 308.822,293.806 318.5,310.5C 303.845,311.666 289.178,311.833 274.5,311C 260.658,285.642 246.325,260.642 231.5,236C 225.175,235.5 218.842,235.334 212.5,235.5C 210.509,260.478 209.843,285.811 210.5,311.5C 198.5,311.5 186.5,311.5 174.5,311.5C 174.833,287.491 174.5,263.491 173.5,239.5C 131.923,240.823 90.4232,240.823 49,239.5C 48.168,176.332 48.3347,113.332 49.5,50.5 Z M 212.5,156.5 C 227.17,156.333 241.837,156.5 256.5,157C 267.986,159.438 273.653,166.604 273.5,178.5C 273.581,188.003 269.581,195.003 261.5,199.5C 245.544,200.636 229.544,200.803 213.5,200C 213,199.5 212.5,199 212,198.5C 211.186,184.425 211.352,170.425 212.5,156.5 Z"/></g>
<g><path style="opacity:0.408" fill="#8c8c8c" d="M 49.5,50.5 C 61.3217,49.5049 73.3217,49.1716 85.5,49.5C 85.5,100.167 85.5,150.833 85.5,201.5C 85.5,202.833 85.5,204.167 85.5,205.5C 84.5011,154.003 84.1678,102.336 84.5,50.5C 72.8333,50.5 61.1667,50.5 49.5,50.5 Z"/></g>
<g><path style="opacity:0.138" fill="#444444" d="M 265.5,122.5 C 235.5,122.5 205.5,122.5 175.5,122.5C 175.5,149.833 175.5,177.167 175.5,204.5C 174.833,204.5 174.167,204.5 173.5,204.5C 174.491,176.907 174.824,149.241 174.5,121.5C 205.005,121.169 235.338,121.502 265.5,122.5 Z"/></g>
<g><path style="opacity:0.368" fill="#949494" d="M 212.5,156.5 C 211.352,170.425 211.186,184.425 212,198.5C 212.5,199 213,199.5 213.5,200C 229.544,200.803 245.544,200.636 261.5,199.5C 261.389,200.117 261.056,200.617 260.5,201C 244.167,201.667 227.833,201.667 211.5,201C 210.841,193.576 210.508,186.076 210.5,178.5C 210.503,170.802 211.169,163.468 212.5,156.5 Z"/></g>
<g><path style="opacity:0.211" fill="#5e5e5e" d="M 85.5,201.5 C 86.404,202.209 86.7373,203.209 86.5,204.5C 115.5,204.5 144.5,204.5 173.5,204.5C 174.167,204.5 174.833,204.5 175.5,204.5C 145.671,205.498 115.671,205.831 85.5,205.5C 85.5,204.167 85.5,202.833 85.5,201.5 Z"/></g>
<g><path style="opacity:0.008" fill="#222222" d="M 275.5,233.5 C 275.5,234.5 275.5,235.5 275.5,236.5C 273.443,234.957 273.443,233.957 275.5,233.5 Z"/></g>
<g><path style="opacity:0.173" fill="#444444" d="M 283.5,250.5 C 284.906,250.973 285.573,251.973 285.5,253.5C 284.094,253.027 283.427,252.027 283.5,250.5 Z"/></g>
<g><path style="opacity:0.196" fill="#4f4f4f" d="M 287.5,257.5 C 288.906,257.973 289.573,258.973 289.5,260.5C 288.094,260.027 287.427,259.027 287.5,257.5 Z"/></g>
<g><path style="opacity:0.342" fill="#939393" d="M 212.5,235.5 C 211.851,260.961 211.185,286.294 210.5,311.5C 209.843,285.811 210.509,260.478 212.5,235.5 Z"/></g>
</svg>
